<svg id="Capa_1" data-name="Capa 1" xmlns="http://www.w3.org/2000/svg" viewBox="0 0 275.06 273.45"><defs><style>.cls-1,.cls-2{fill:#984d46;}.cls-2{font-size:66.38px;font-family:Algerian;}</style></defs><path class="cls-1" d="M191.24,70.44A39.66,39.66,0,0,0,141.32,45a47,47,0,0,0-8.27,3.66,46.61,46.61,0,0,0,.92-9c0-22-15.24-39.61-37-39.61S59.23,17.65,59.23,39.66a47.41,47.41,0,0,0,.92,9A46.67,46.67,0,0,0,51.88,45,39.65,39.65,0,0,0,2,70.44C-4.88,91.51,6.77,115,27.4,121.68a47.2,47.2,0,0,0,8.84,1.9,45.88,45.88,0,0,0-6,6.74A39.66,39.66,0,0,0,39,185.65c17.66,12.83,40.61,9,53.49-8.76A48.12,48.12,0,0,0,97,169.07a46.7,46.7,0,0,0,4.54,7.82c12.9,17.75,35.07,21.57,52.69,8.76A39.66,39.66,0,0,0,163,130.32a47.05,47.05,0,0,0-6-6.74,47.09,47.09,0,0,0,8.83-1.9C186.44,115,198.08,91.51,191.24,70.44ZM97,11.37c14.86,0,25.65,11.9,25.65,28.29,0,7.38-2.88,16.48-7.72,24.34a5.57,5.57,0,0,0-.84,3.06l-5.89,10.2a28,28,0,0,0-5.62-1.75V52.3A5.59,5.59,0,0,0,97,46.65a5.65,5.65,0,0,0-5.66,5.65V75.51a27.86,27.86,0,0,0-5.66,1.8L79.1,66.54A5.65,5.65,0,0,0,78.27,64c-4.83-7.86-7.72-17-7.72-24.34C70.55,23.53,81.92,11.37,97,11.37ZM30.9,110.91c-14.55-4.72-23-22-18.17-37A28.34,28.34,0,0,1,48.39,55.77c6.09,2,12.74,6.43,18.3,12.17l9.72,15.92a28.6,28.6,0,0,0-4,5.43L50.31,82.12a5.66,5.66,0,1,0-3.5,10.76l22.08,7.17a27.53,27.53,0,0,0,0,6.48l-14.14,4.93C46.29,113.24,37.48,113.05,30.9,110.91Zm60.44,35.27c-.73,9.14-3.73,18.12-8,24-9.21,12.68-25.08,15.41-37.68,6.26A28.33,28.33,0,0,1,39.36,137c7.5-10.32,20.51-15,21.5-15.65l11.59-4a28.64,28.64,0,0,0,3.68,5L62.48,141.12a5.66,5.66,0,0,0,9.16,6.65L85.29,129a28.18,28.18,0,0,0,6,2v15.22Zm5.66-26a17,17,0,1,1,17-17A17,17,0,0,1,97,120.22Zm50.58,56.27c-13,9.45-28,6-36.88-6.26-4.31-5.93-7.39-14.91-8.12-24V131a28.69,28.69,0,0,0,6.13-2l13.65,18.78a5.66,5.66,0,0,0,9.15-6.65l-13.65-18.79a28.16,28.16,0,0,0,3.66-5l10.55,3.8c1.3,1,14.17,5.37,21.77,15.84A28.33,28.33,0,0,1,147.58,176.49Zm-8.71-64.94-13.78-5a28,28,0,0,0,0-6.53l22.08-7.17a5.66,5.66,0,0,0-3.5-10.76L121.6,89.29a28.82,28.82,0,0,0-4.09-5.52l9.34-16.17c5.49-5.58,12-9.89,18-11.83a28.33,28.33,0,0,1,35.65,18.16c4.87,15-3.62,32.26-18.16,37h0C155.83,113,147.21,113.23,138.87,111.55Z" transform="translate(0 -0.05)"/><text class="cls-2" transform="translate(51.5 256.24)"><tspan xml:space="preserve"> Flora</tspan></text></svg>