<svg xmlns="http://www.w3.org/2000/svg" viewBox="0 0 31 25"><defs><style>.cls-1{fill:#091b2f;}</style></defs><g id="圖層_2" data-name="圖層 2"><g id="Layer_1" data-name="Layer 1"><path class="cls-1" d="M8.24,25a3.1,3.1,0,1,1,3.06-3.1A3.08,3.08,0,0,1,8.24,25Zm0-4.37A1.27,1.27,0,1,0,9.56,21.9,1.3,1.3,0,0,0,8.24,20.63Z"/><path class="cls-1" d="M16.13,25a3.1,3.1,0,1,1,3.06-3.1A3.08,3.08,0,0,1,16.13,25Zm0-4.37a1.27,1.27,0,1,0,1.32,1.27A1.3,1.3,0,0,0,16.13,20.63Z"/><path class="cls-1" d="M19.77,17h-15A.88.88,0,0,1,4,16.44L.06,5.83A1,1,0,0,1,.15,5a.88.88,0,0,1,.72-.39H19a.92.92,0,0,1,0,1.83H2.14L5.38,15.2H19.15L23.94.62A.89.89,0,0,1,24.77,0h5.36A.89.89,0,0,1,31,.91a.9.9,0,0,1-.87.92H25.39l-4.8,14.58A.87.87,0,0,1,19.77,17Z"/></g></g></svg>