<svg xmlns="http://www.w3.org/2000/svg" viewBox="0 0 26 24"><defs><style>.cls-1{fill:#091b2f;}</style></defs><g id="圖層_2" data-name="圖層 2"><g id="Layer_1" data-name="Layer 1"><path class="cls-1" d="M13,13.55A6.7,6.7,0,0,1,6.4,6.78,6.7,6.7,0,0,1,13,0a6.7,6.7,0,0,1,6.6,6.78A6.7,6.7,0,0,1,13,13.55Zm0-11.8a5,5,0,0,0-4.89,5,5,5,0,0,0,4.89,5,5,5,0,0,0,4.89-5A5,5,0,0,0,13,1.75Z"/><path class="cls-1" d="M25.15,24H.85a.83.83,0,0,1-.63-.3A.84.84,0,0,1,0,23c.7-6,3.35-9.1,8.1-9.42a.86.86,0,0,1,.56.17,7,7,0,0,0,8.65,0,.88.88,0,0,1,.57-.17c4.74.31,7.4,3.4,8.1,9.42a.84.84,0,0,1-.21.68A.83.83,0,0,1,25.15,24ZM1.84,22.25H24.16c-.72-4.39-2.63-6.54-6.09-6.87a8.67,8.67,0,0,1-10.15,0C4.47,15.71,2.56,17.86,1.84,22.25Z"/></g></g></svg>